<mxfile host="app.diagrams.net" modified="2020-06-21T03:03:01.969Z" agent="5.0 (Macintosh; Intel Mac OS X 10_15_4) AppleWebKit/605.1.15 (KHTML, like Gecko) Version/13.1 Safari/605.1.15" etag="KN7GOwUgy7at-74Ej-eK" version="13.3.0" type="github">
  <diagram id="7x4zrG26Vmu7AJjJExAw" name="Page-1">
    <mxGraphModel dx="830" dy="579" grid="1" gridSize="10" guides="1" tooltips="1" connect="1" arrows="1" fold="1" page="1" pageScale="1" pageWidth="827" pageHeight="1169" math="0" shadow="0">
      <root>
        <mxCell id="0" />
        <mxCell id="1" parent="0" />
        <mxCell id="aR5xU2yVpEh94drZomTJ-6" value="" style="edgeStyle=orthogonalEdgeStyle;rounded=0;orthogonalLoop=1;jettySize=auto;html=1;" parent="1" source="lCGzQRFo7NH5bOHaUzRh-1" target="aR5xU2yVpEh94drZomTJ-5" edge="1">
          <mxGeometry relative="1" as="geometry" />
        </mxCell>
        <mxCell id="QHBKl7Xj4HWweKLmu-7t-7" value="" style="edgeStyle=orthogonalEdgeStyle;rounded=0;orthogonalLoop=1;jettySize=auto;html=1;" edge="1" parent="1" source="lCGzQRFo7NH5bOHaUzRh-1" target="QHBKl7Xj4HWweKLmu-7t-6">
          <mxGeometry relative="1" as="geometry" />
        </mxCell>
        <mxCell id="lCGzQRFo7NH5bOHaUzRh-1" value="线程数是否小于核心线程数corePoolSize" style="rounded=1;whiteSpace=wrap;html=1;fillColor=#CCE5FF;" parent="1" vertex="1">
          <mxGeometry x="310" y="140" width="120" height="60" as="geometry" />
        </mxCell>
        <mxCell id="QHBKl7Xj4HWweKLmu-7t-6" value="创建一个新线程处理任务" style="rounded=1;whiteSpace=wrap;html=1;fillColor=#CCE5FF;" vertex="1" parent="1">
          <mxGeometry x="110" y="140" width="120" height="60" as="geometry" />
        </mxCell>
        <mxCell id="aR5xU2yVpEh94drZomTJ-8" value="" style="edgeStyle=orthogonalEdgeStyle;rounded=0;orthogonalLoop=1;jettySize=auto;html=1;" parent="1" source="aR5xU2yVpEh94drZomTJ-5" target="aR5xU2yVpEh94drZomTJ-7" edge="1">
          <mxGeometry relative="1" as="geometry" />
        </mxCell>
        <mxCell id="QHBKl7Xj4HWweKLmu-7t-18" value="" style="edgeStyle=orthogonalEdgeStyle;rounded=0;orthogonalLoop=1;jettySize=auto;html=1;" edge="1" parent="1" source="aR5xU2yVpEh94drZomTJ-5" target="QHBKl7Xj4HWweKLmu-7t-17">
          <mxGeometry relative="1" as="geometry" />
        </mxCell>
        <mxCell id="aR5xU2yVpEh94drZomTJ-5" value="阻塞队列是否未满" style="rounded=1;whiteSpace=wrap;html=1;fillColor=#CCE5FF;" parent="1" vertex="1">
          <mxGeometry x="310" y="280" width="120" height="60" as="geometry" />
        </mxCell>
        <mxCell id="QHBKl7Xj4HWweKLmu-7t-17" value="将任务加入队列等待执行" style="rounded=1;whiteSpace=wrap;html=1;fillColor=#CCE5FF;" vertex="1" parent="1">
          <mxGeometry x="110" y="280" width="120" height="60" as="geometry" />
        </mxCell>
        <mxCell id="QHBKl7Xj4HWweKLmu-7t-21" value="" style="edgeStyle=orthogonalEdgeStyle;rounded=0;orthogonalLoop=1;jettySize=auto;html=1;" edge="1" parent="1" source="aR5xU2yVpEh94drZomTJ-7" target="QHBKl7Xj4HWweKLmu-7t-20">
          <mxGeometry relative="1" as="geometry" />
        </mxCell>
        <mxCell id="QHBKl7Xj4HWweKLmu-7t-23" value="" style="edgeStyle=orthogonalEdgeStyle;rounded=0;orthogonalLoop=1;jettySize=auto;html=1;" edge="1" parent="1" source="aR5xU2yVpEh94drZomTJ-7">
          <mxGeometry relative="1" as="geometry">
            <mxPoint x="370" y="560" as="targetPoint" />
          </mxGeometry>
        </mxCell>
        <mxCell id="aR5xU2yVpEh94drZomTJ-7" value="线程数是否小于最大线程数maximumPoolSize" style="rounded=1;whiteSpace=wrap;html=1;fillColor=#CCE5FF;" parent="1" vertex="1">
          <mxGeometry x="310" y="420" width="120" height="60" as="geometry" />
        </mxCell>
        <mxCell id="QHBKl7Xj4HWweKLmu-7t-20" value="创建idel thread处理任务" style="rounded=1;whiteSpace=wrap;html=1;fillColor=#CCE5FF;" vertex="1" parent="1">
          <mxGeometry x="110" y="420" width="120" height="60" as="geometry" />
        </mxCell>
        <mxCell id="QHBKl7Xj4HWweKLmu-7t-3" value="" style="edgeStyle=orthogonalEdgeStyle;rounded=0;orthogonalLoop=1;jettySize=auto;html=1;" edge="1" parent="1">
          <mxGeometry relative="1" as="geometry">
            <mxPoint x="369.5" y="60" as="sourcePoint" />
            <mxPoint x="369.5" y="140" as="targetPoint" />
          </mxGeometry>
        </mxCell>
        <mxCell id="QHBKl7Xj4HWweKLmu-7t-4" value="任务请求" style="text;html=1;resizable=0;autosize=1;align=center;verticalAlign=middle;points=[];fillColor=none;strokeColor=none;rounded=0;" vertex="1" parent="1">
          <mxGeometry x="370" y="90" width="60" height="20" as="geometry" />
        </mxCell>
        <mxCell id="QHBKl7Xj4HWweKLmu-7t-8" value="是" style="text;html=1;resizable=0;autosize=1;align=center;verticalAlign=middle;points=[];fillColor=none;strokeColor=none;rounded=0;" vertex="1" parent="1">
          <mxGeometry x="260" y="460" width="30" height="20" as="geometry" />
        </mxCell>
        <mxCell id="QHBKl7Xj4HWweKLmu-7t-9" value="否" style="text;html=1;resizable=0;autosize=1;align=center;verticalAlign=middle;points=[];fillColor=none;strokeColor=none;rounded=0;" vertex="1" parent="1">
          <mxGeometry x="380" y="500" width="30" height="20" as="geometry" />
        </mxCell>
        <mxCell id="QHBKl7Xj4HWweKLmu-7t-12" value="是" style="text;html=1;resizable=0;autosize=1;align=center;verticalAlign=middle;points=[];fillColor=none;strokeColor=none;rounded=0;" vertex="1" parent="1">
          <mxGeometry x="260" y="180" width="30" height="20" as="geometry" />
        </mxCell>
        <mxCell id="QHBKl7Xj4HWweKLmu-7t-15" value="否" style="text;html=1;resizable=0;autosize=1;align=center;verticalAlign=middle;points=[];fillColor=none;strokeColor=none;rounded=0;" vertex="1" parent="1">
          <mxGeometry x="380" y="230" width="30" height="20" as="geometry" />
        </mxCell>
        <mxCell id="QHBKl7Xj4HWweKLmu-7t-16" value="否" style="text;html=1;resizable=0;autosize=1;align=center;verticalAlign=middle;points=[];fillColor=none;strokeColor=none;rounded=0;" vertex="1" parent="1">
          <mxGeometry x="380" y="360" width="30" height="20" as="geometry" />
        </mxCell>
        <mxCell id="QHBKl7Xj4HWweKLmu-7t-19" value="是" style="text;html=1;resizable=0;autosize=1;align=center;verticalAlign=middle;points=[];fillColor=none;strokeColor=none;rounded=0;" vertex="1" parent="1">
          <mxGeometry x="260" y="320" width="30" height="20" as="geometry" />
        </mxCell>
        <mxCell id="QHBKl7Xj4HWweKLmu-7t-24" value="&lt;span&gt;使用相应饱和策略处理任务请求&lt;/span&gt;" style="rounded=0;whiteSpace=wrap;html=1;fillColor=#CCE5FF;" vertex="1" parent="1">
          <mxGeometry x="310" y="560" width="120" height="60" as="geometry" />
        </mxCell>
      </root>
    </mxGraphModel>
  </diagram>
</mxfile>
